<?xml version="1.0" encoding="UTF-8" standalone="no"?>
<svg width="21px" height="20px" viewBox="0 0 21 20" version="1.1" xmlns="http://www.w3.org/2000/svg" xmlns:xlink="http://www.w3.org/1999/xlink" xmlns:sketch="http://www.bohemiancoding.com/sketch/ns">
    <!-- Generator: Sketch 3.0.1 (7597) - http://www.bohemiancoding.com/sketch -->
    <title>warning</title>
    <description>Created with Sketch.</description>
    <defs></defs>
    <g id="Page-1" stroke="none" stroke-width="1" fill="none" fill-rule="evenodd" sketch:type="MSPage">
        <g id="warning" sketch:type="MSLayerGroup" transform="translate(0.000000, 1.000000)" fill="#FF9421">
            <path d="M20.531,15.324 C20.765,15.746 20.9,16.144 20.935,16.519 C20.97,16.894 20.9,17.222 20.724,17.503 C20.548,17.784 20.29,18.007 19.951,18.171 C19.612,18.335 19.195,18.417 18.703,18.417 L2.391,18.417 C1.36,18.417 0.674,18.106 0.334,17.485 C-0.006,16.864 0.07,16.143 0.563,15.323 L8.719,1.121 C9.211,0.254 9.809,-0.18 10.512,-0.18 C11.215,-0.18 11.836,0.254 12.375,1.121 L20.531,15.324 L20.531,15.324 Z M9.422,5.164 C9.281,5.305 9.176,5.48 9.105,5.691 C9.034,5.902 9,6.113 9,6.324 C9,6.418 9.035,6.652 9.105,7.027 C9.175,7.402 9.251,7.853 9.334,8.381 C9.417,8.909 9.504,9.483 9.598,10.104 C9.692,10.725 9.762,11.317 9.809,11.879 L11.215,11.879 C11.285,11.316 11.367,10.725 11.461,10.104 C11.555,9.483 11.649,8.909 11.742,8.381 C11.835,7.853 11.918,7.402 11.988,7.027 C12.058,6.652 12.093,6.418 12.093,6.324 C12.093,6.113 12.058,5.902 11.988,5.691 C11.918,5.48 11.812,5.304 11.672,5.164 C11.344,4.836 10.957,4.672 10.512,4.672 C10.043,4.672 9.68,4.836 9.422,5.164 L9.422,5.164 Z M11.602,15.465 C11.93,15.207 12.094,14.844 12.094,14.375 C12.094,13.906 11.93,13.52 11.602,13.215 C11.461,13.074 11.297,12.957 11.11,12.863 C10.923,12.769 10.723,12.722 10.512,12.722 C10.114,12.722 9.75,12.886 9.422,13.214 C9.141,13.543 9,13.93 9,14.375 C9,14.82 9.141,15.184 9.422,15.465 C9.563,15.582 9.733,15.682 9.932,15.764 C10.131,15.846 10.325,15.887 10.512,15.887 C10.723,15.887 10.922,15.846 11.11,15.764 C11.298,15.682 11.461,15.582 11.602,15.465 L11.602,15.465 Z" id="Shape" sketch:type="MSShapeGroup"></path>
        </g>
    </g>
</svg>