<?xml version="1.0" encoding="UTF-8" standalone="no"?>
<svg width="26px" height="25px" viewBox="0 0 26 25" version="1.1" xmlns="http://www.w3.org/2000/svg" xmlns:xlink="http://www.w3.org/1999/xlink" xmlns:sketch="http://www.bohemiancoding.com/sketch/ns">
    <!-- Generator: Sketch 3.0.1 (7597) - http://www.bohemiancoding.com/sketch -->
    <title>linkedin_hover</title>
    <description>Created with Sketch.</description>
    <defs></defs>
    <g id="Page-1" stroke="none" stroke-width="1" fill="none" fill-rule="evenodd" sketch:type="MSPage">
        <g id="Hover" sketch:type="MSLayerGroup" transform="translate(-23.000000, -1.000000)" fill="#CF1825">
            <path d="M48.7142857,16.3276163 L48.7142857,26 L43.2031429,26 L43.2031429,16.9752907 C43.2031429,14.7081395 42.4057143,13.1613372 40.4108571,13.1613372 C38.888,13.1613372 37.9817143,14.2040698 37.5825714,15.2125 C37.4377143,15.5729651 37.4002857,16.075 37.4002857,16.5796512 L37.4002857,26 L31.8874286,26 C31.8874286,26 31.9617143,10.7151163 31.8874286,9.13139535 L37.4002857,9.13139535 L37.4002857,11.5223837 C37.3891429,11.540407 37.3745714,11.559593 37.364,11.5770349 L37.4002857,11.5770349 L37.4002857,11.5223837 C38.1322857,10.3747093 39.4402857,8.73517442 42.368,8.73517442 C45.9957143,8.73517442 48.7142857,11.1462209 48.7142857,16.3276163 L48.7142857,16.3276163 Z M26.12,1 C24.234,1 23,2.25872093 23,3.91395349 C23,5.53313953 24.1982857,6.82994186 26.0468571,6.82994186 L26.0837143,6.82994186 C28.0062857,6.82994186 29.202,5.53313953 29.202,3.91395349 C29.1657143,2.25872093 28.0062857,1 26.12,1 L26.12,1 Z M23.3277143,26 L28.8388571,26 L28.8388571,9.13139535 L23.3277143,9.13139535 L23.3277143,26 Z" id="linkedin" sketch:type="MSShapeGroup"></path>
        </g>
    </g>
</svg>