<?xml version="1.0" encoding="UTF-8" standalone="no"?>
<svg width="21px" height="21px" viewBox="0 0 21 21" version="1.1" xmlns="http://www.w3.org/2000/svg" xmlns:xlink="http://www.w3.org/1999/xlink" xmlns:sketch="http://www.bohemiancoding.com/sketch/ns">
    <!-- Generator: Sketch 3.0.1 (7597) - http://www.bohemiancoding.com/sketch -->
    <title>status</title>
    <description>Created with Sketch.</description>
    <defs></defs>
    <g id="Page-1" stroke="none" stroke-width="1" fill="none" fill-rule="evenodd" sketch:type="MSPage">
        <g id="status" sketch:type="MSLayerGroup" fill="#1A7000">
            <path d="M10.512,0.047 C11.942,0.047 13.295,0.322 14.573,0.873 C15.851,1.424 16.958,2.168 17.895,3.105 C18.832,4.042 19.577,5.15 20.127,6.427 C20.677,7.704 20.953,9.058 20.953,10.488 C20.953,11.941 20.678,13.295 20.127,14.549 C19.576,15.803 18.832,16.899 17.895,17.836 C16.958,18.773 15.85,19.512 14.573,20.051 C13.296,20.59 11.942,20.86 10.512,20.86 C9.059,20.86 7.705,20.59 6.451,20.051 C5.197,19.512 4.101,18.774 3.164,17.836 C2.227,16.898 1.488,15.803 0.949,14.549 C0.41,13.295 0.14,11.942 0.14,10.488 C0.14,9.058 0.41,7.705 0.949,6.427 C1.488,5.149 2.226,4.042 3.164,3.105 C4.102,2.168 5.197,1.423 6.451,0.873 C7.705,0.323 9.059,0.047 10.512,0.047 L10.512,0.047 Z M15.996,7.324 C16.113,7.183 16.154,7.031 16.119,6.867 C16.084,6.703 15.996,6.562 15.855,6.445 L14.906,5.812 C14.578,5.648 14.308,5.695 14.097,5.953 L9.492,12.808 L7.347,10.628 C7.089,10.464 6.82,10.464 6.538,10.628 L5.694,11.507 C5.577,11.624 5.518,11.753 5.518,11.894 C5.518,12.035 5.577,12.164 5.694,12.281 L9,15.586 C9.117,15.656 9.234,15.727 9.352,15.797 C9.47,15.867 9.586,15.902 9.704,15.902 C10.032,15.902 10.278,15.75 10.442,15.445 L15.996,7.324 L15.996,7.324 Z" id="Shape" sketch:type="MSShapeGroup"></path>
        </g>
    </g>
</svg>