<?xml version="1.0" encoding="UTF-8" standalone="no"?>
<svg width="17px" height="26px" viewBox="0 0 17 26" version="1.1" xmlns="http://www.w3.org/2000/svg" xmlns:xlink="http://www.w3.org/1999/xlink" xmlns:sketch="http://www.bohemiancoding.com/sketch/ns">
    <!-- Generator: Sketch 3.0.1 (7597) - http://www.bohemiancoding.com/sketch -->
    <title>googleplus_active</title>
    <description>Created with Sketch.</description>
    <defs></defs>
    <g id="Page-1" stroke="none" stroke-width="1" fill="none" fill-rule="evenodd" sketch:type="MSPage">
        <g id="Active" sketch:type="MSLayerGroup" transform="translate(-63.000000, 0.000000)" fill="#004F8A">
            <path d="M79.7163833,0 L72.8158,0 C71.0072833,0 68.7295667,0.269428571 66.8210333,1.85428571 C65.3788667,3.104 64.67705,4.82342857 64.67705,6.37657143 C64.67705,9.00828571 66.6870167,11.6754286 70.2374667,11.6754286 C70.5723667,11.6754286 70.9392833,11.6414286 71.3107333,11.6082857 C71.143,12.012 70.9735667,12.3494286 70.9735667,12.924 C70.9735667,13.9705714 71.5099167,14.6105714 71.97855,15.2182857 C70.4726333,15.3188571 67.6582833,15.4874286 65.5803167,16.7691429 C63.6040667,17.9522857 63,19.672 63,20.8874286 C63,23.3845714 65.3457167,25.7142857 70.2031833,25.7142857 C75.96505,25.7142857 79.0142833,22.5085714 79.0142833,19.3345714 C79.0142833,17.0082857 77.6741167,15.8591429 76.2002167,14.6105714 L74.9940667,13.6662857 C74.62715,13.362 74.1245167,12.9582857 74.1245167,12.2148571 C74.1245167,11.4731429 74.62715,10.9997143 75.0615,10.5611429 C76.4676833,9.448 77.8752833,8.26685714 77.8752833,5.76971429 C77.8752833,3.20428571 76.2662333,1.85428571 75.4964167,1.21371429 L77.5743833,1.21371429 L79.7163833,0 L79.7163833,0 Z M76.77085,20.6514286 C76.77085,22.7437143 75.0615,24.2951429 71.8451,24.2951429 C68.2615,24.2951429 65.9495,22.574 65.9495,20.1794286 C65.9495,17.7817143 68.0937667,16.974 68.8298667,16.7037143 C70.2374667,16.2308571 72.0459833,16.1634286 72.3471667,16.1634286 C72.68235,16.1634286 72.8500833,16.1634286 73.1189667,16.1965714 C75.66585,18.0185714 76.77085,18.9308571 76.77085,20.6514286 L76.77085,20.6514286 Z M74.0902333,9.78571429 C73.5538833,10.3245714 72.6486333,10.7297143 71.8108167,10.7297143 C68.9310167,10.7297143 67.6251333,6.98314286 67.6251333,4.72314286 C67.6251333,3.84514286 67.7928667,2.93514286 68.36095,2.226 C68.8973,1.55114286 69.83485,1.112 70.7063833,1.112 C73.4858833,1.112 74.92805,4.892 74.92805,7.32085714 C74.92805,7.92942857 74.86005,9.00828571 74.0902333,9.78571429 L74.0902333,9.78571429 Z" id="googleplus" sketch:type="MSShapeGroup"></path>
        </g>
    </g>
</svg>