<?xml version="1.0" encoding="UTF-8" standalone="no"?>
<svg width="19px" height="26px" viewBox="0 0 19 26" version="1.1" xmlns="http://www.w3.org/2000/svg" xmlns:xlink="http://www.w3.org/1999/xlink" xmlns:sketch="http://www.bohemiancoding.com/sketch/ns">
    <!-- Generator: Sketch 3.0.1 (7597) - http://www.bohemiancoding.com/sketch -->
    <title>twitter_active</title>
    <description>Created with Sketch.</description>
    <defs></defs>
    <g id="Page-1" stroke="none" stroke-width="1" fill="none" fill-rule="evenodd" sketch:type="MSPage">
        <g id="Active" sketch:type="MSLayerGroup" transform="translate(-95.000000, 0.000000)" fill="#004F8A">
            <path d="M110.580559,19.2848571 L104.375662,19.2848571 C103.512838,19.2848571 102.779382,18.976 102.176691,18.3562857 C101.571765,17.7357143 101.271956,16.9857143 101.271956,16.0991429 L101.271956,13.8411429 L110.113941,13.8411429 C110.911103,13.8411429 111.597897,13.5477143 112.168456,12.9657143 C112.738735,12.3791429 113.025412,11.6777143 113.025412,10.8611429 C113.025412,10.042 112.738735,9.34142857 112.166779,8.75657143 C111.594544,8.17314286 110.905794,7.88057143 110.104721,7.88057143 L101.271956,7.88057143 L101.271956,3.21542857 C101.271956,2.33285714 100.964324,1.57685714 100.352691,0.947142857 C99.7438529,0.316571429 99.0078824,0 98.1523235,0 C97.2732941,0 96.52475,0.311714286 95.9159118,0.928571429 C95.3051176,1.54742857 95,2.30971429 95,3.21828571 L95,16.1011429 C95,18.7508571 95.9159118,21.0145714 97.7488529,22.8934286 C99.5829118,24.7757143 101.794176,25.7142857 104.379015,25.7142857 L110.582794,25.7142857 C111.443941,25.7142857 112.183265,25.398 112.79825,24.7671429 C113.413515,24.1394286 113.720588,23.382 113.720588,22.5 C113.720588,21.618 113.413515,20.8617143 112.79825,20.2311429 C112.183265,19.6022857 111.442824,19.2848571 110.580559,19.2848571" id="twitter" sketch:type="MSShapeGroup"></path>
        </g>
    </g>
</svg>