<?xml version="1.0" encoding="UTF-8" standalone="no"?>
<svg width="23px" height="26px" viewBox="0 0 23 26" version="1.1" xmlns="http://www.w3.org/2000/svg" xmlns:xlink="http://www.w3.org/1999/xlink" xmlns:sketch="http://www.bohemiancoding.com/sketch/ns">
    <!-- Generator: Sketch 3.0.1 (7597) - http://www.bohemiancoding.com/sketch -->
    <title>youtube_active</title>
    <description>Created with Sketch.</description>
    <defs></defs>
    <g id="Page-1" stroke="none" stroke-width="1" fill="none" fill-rule="evenodd" sketch:type="MSPage">
        <g id="Active" sketch:type="MSLayerGroup" transform="translate(-128.000000, 0.000000)" fill="#004F8A">
            <path d="M147.199553,19.0181333 L145.703947,19.0181333 L145.711211,18.1893111 C145.711211,17.8209778 146.028066,17.5196667 146.415737,17.5196667 L146.511066,17.5196667 C146.899342,17.5196667 147.2165,17.8209778 147.2165,18.1893111 L147.199553,19.0181333 L147.199553,19.0181333 Z M141.592395,17.2420444 C141.213197,17.2420444 140.902697,17.485 140.902697,17.7831333 L140.902697,21.814 C140.902697,22.1112667 141.213197,22.3539333 141.592395,22.3539333 C141.973105,22.3539333 142.283605,22.1112667 142.283605,21.814 L142.283605,17.7831333 C142.283605,17.485 141.973105,17.2420444 141.592395,17.2420444 L141.592395,17.2420444 Z M150.697368,14.9872667 L150.697368,22.6555333 C150.697368,24.4948889 149.026539,26 146.984382,26 L131.713895,26 C129.670526,26 128,24.4948889 128,22.6555333 L128,14.9872667 C128,13.1479111 129.670526,11.6425111 131.713895,11.6425111 L146.984382,11.6425111 C149.026539,11.6425111 150.697368,13.1479111 150.697368,14.9872667 L150.697368,14.9872667 Z M132.73225,23.4881111 L132.731039,15.4104889 L134.624303,15.4110667 L134.624303,14.2142 L129.578224,14.2069778 L129.578224,15.3836222 L131.153421,15.3879556 L131.153421,23.4881111 L132.73225,23.4881111 L132.73225,23.4881111 Z M138.406592,16.6137111 L136.828368,16.6137111 L136.828368,20.9268222 C136.828368,21.5511111 136.868013,21.8631111 136.825947,21.9731778 C136.697934,22.3077111 136.120816,22.6624667 135.896263,22.009 C135.857829,21.8948889 135.891724,21.5496667 135.891118,20.9568667 L135.884461,16.6137111 L134.315316,16.6137111 L134.319855,20.8884 C134.321066,21.5433111 134.304421,22.0324 134.325303,22.2542667 C134.363737,22.6465778 134.350118,23.1038889 134.731434,23.3644667 C135.441105,23.8529778 136.801737,23.2916667 137.142197,22.5937111 L137.139474,23.4843556 L138.406592,23.4858 L138.406592,16.6137111 L138.406592,16.6137111 Z M143.455697,21.5531333 L143.452066,17.9631111 C143.450855,16.5946444 142.378632,15.7750667 140.922974,16.8820889 L140.929329,14.2130444 L139.352316,14.2153556 L139.34475,23.4280222 L140.640921,23.4095333 L140.75925,22.8358 C142.416461,24.2874667 143.458118,23.2934 143.455697,21.5531333 L143.455697,21.5531333 Z M148.394645,21.0773333 L147.211355,21.0834 C147.21075,21.1281778 147.208934,21.1796 147.208329,21.2362222 L147.208329,21.8662889 C147.208329,22.2034222 146.916289,22.4784444 146.561605,22.4784444 L146.330092,22.4784444 C145.974803,22.4784444 145.683368,22.2034222 145.683368,21.8662889 L145.683368,20.2083556 L148.392829,20.2083556 L148.392829,19.2348 C148.392829,18.5232667 148.374066,17.8120222 148.312632,17.4052667 C148.118645,16.1185556 146.226592,15.9143111 145.270882,16.5729778 C144.970671,16.7786667 144.741882,17.0539778 144.608118,17.4240444 C144.473447,17.7944 144.407171,18.2999556 144.407171,18.9418667 L144.407171,21.0822444 C144.407171,24.6410667 148.934842,24.1381111 148.394645,21.0773333 L148.394645,21.0773333 Z M142.324763,9.45591111 C142.405868,9.64513333 142.532368,9.79795556 142.704263,9.91351111 C142.873434,10.0273333 143.091026,10.0845333 143.349776,10.0845333 C143.577355,10.0845333 143.778908,10.0258889 143.954434,9.90484444 C144.129355,9.78437778 144.277342,9.6044 144.397184,9.36433333 L144.367526,9.9554 L146.126724,9.9554 L146.126724,2.81377778 L144.741882,2.81377778 L144.741882,8.372 C144.741882,8.67302222 144.481618,8.91944444 144.164461,8.91944444 C143.848816,8.91944444 143.587947,8.67302222 143.587947,8.372 L143.587947,2.81377778 L142.142882,2.81377778 L142.142882,7.63071111 C142.142882,8.24431111 142.154079,8.65337778 142.172842,8.8608 C142.194329,9.06677778 142.243355,9.26437778 142.324763,9.45591111 L142.324763,9.45591111 Z M136.993303,5.42244444 C136.993303,4.73662222 137.053526,4.2016 137.172461,3.81564444 C137.292,3.43113333 137.507474,3.12202222 137.819184,2.88888889 C138.129987,2.6546 138.527947,2.53731111 139.011855,2.53731111 C139.418592,2.53731111 139.767224,2.61357778 140.058658,2.76293333 C140.351303,2.91315556 140.577066,3.10844444 140.733829,3.34908889 C140.893316,3.5906 141.001355,3.83875556 141.059461,4.09268889 C141.118474,4.35008889 141.147526,4.73835556 141.147526,5.26211111 L141.147526,7.06824444 C141.147526,7.73066667 141.119684,8.21802222 141.065816,8.52742222 C141.012553,8.83768889 140.897553,9.12542222 140.719605,9.39495556 C140.544079,9.66188889 140.317105,9.8618 140.042316,9.98891111 C139.764197,10.1174667 139.447039,10.1804444 139.087513,10.1804444 C138.686829,10.1804444 138.348789,10.1278667 138.070368,10.0172222 C137.791342,9.90744444 137.575566,9.74191111 137.421829,9.52206667 C137.266579,9.30193333 137.157026,9.03355556 137.091658,8.72097778 C137.025382,8.40868889 136.993303,7.93895556 136.993303,7.31293333 L136.993303,5.42244444 L136.993303,5.42244444 Z M138.371184,8.25933333 C138.371184,8.66377778 138.686829,8.99397778 139.070566,8.99397778 C139.454605,8.99397778 139.768434,8.66377778 139.768434,8.25933333 L139.768434,4.45755556 C139.768434,4.0534 139.454605,3.72348889 139.070566,3.72348889 C138.686829,3.72348889 138.371184,4.0534 138.371184,4.45755556 L138.371184,8.25933333 L138.371184,8.25933333 Z M133.502447,10.179 L135.162382,10.179 L135.163895,4.70166667 L137.12525,0.00953333333 L135.310066,0.00953333333 L134.267197,3.49497778 L133.209803,0 L131.413684,0 L133.500026,4.70426667 L133.502447,10.179 L133.502447,10.179 Z" id="youtube" sketch:type="MSShapeGroup"></path>
        </g>
    </g>
</svg>